<?xml version="1.0" encoding="UTF-8" standalone="no"?>
<svg
   viewBox="0 0 32 32"
   version="1.1"
   id="svg4"
   sodipodi:docname="busd.svg"
   inkscape:version="1.2 (dc2aedaf03, 2022-05-15)"
   xmlns:inkscape="http://www.inkscape.org/namespaces/inkscape"
   xmlns:sodipodi="http://sodipodi.sourceforge.net/DTD/sodipodi-0.dtd"
   xmlns="http://www.w3.org/2000/svg"
   xmlns:svg="http://www.w3.org/2000/svg">
  <defs
     id="defs8" />
  <sodipodi:namedview
     id="namedview6"
     pagecolor="#ffffff"
     bordercolor="#666666"
     borderopacity="1.0"
     inkscape:showpageshadow="2"
     inkscape:pageopacity="0.0"
     inkscape:pagecheckerboard="0"
     inkscape:deskcolor="#d1d1d1"
     showgrid="false"
     inkscape:zoom="11.600971"
     inkscape:cx="21.636121"
     inkscape:cy="21.118923"
     inkscape:window-width="2560"
     inkscape:window-height="1017"
     inkscape:window-x="1358"
     inkscape:window-y="-8"
     inkscape:window-maximized="1"
     inkscape:current-layer="svg4" />
  <path
     id="path2"
     d="M 16 0 C 7.163044 0 0 7.163044 0 16 C 0 24.836955 7.163044 32 16 32 C 24.836955 32 32 24.836955 32 16 C 32 7.163044 24.836955 0 16 0 z M 16 5.9121094 L 18.492188 8.4628906 L 12.216797 14.738281 L 9.7246094 12.246094 L 16 5.9121094 z M 19.783203 9.6953125 L 22.275391 12.246094 L 12.216797 22.304688 L 9.7246094 19.8125 L 19.783203 9.6953125 z M 8.4335938 13.478516 L 10.925781 16.029297 L 8.4335938 18.521484 L 5.9414062 16.029297 L 8.4335938 13.478516 z M 23.566406 13.478516 L 26.058594 16.029297 L 16 26.087891 L 13.507812 23.595703 L 23.566406 13.478516 z " />
  <g
     id="Layer_1-2"
     data-name="Layer 1"
     transform="matrix(0.06004936,0,0,0.06004936,5.8996976,5.8690725)"
     style="stroke:none" />
</svg>
